<svg width="63" height="48" viewBox="0 0 63 48" fill="none" xmlns="http://www.w3.org/2000/svg">
<path d="M4.24566 48H14.1522V23.2794L0 12.3733V43.6375C0 46.0514 1.90347 48 4.24566 48Z" fill="#4285F4"/>
<path d="M48.1172 48H58.0237C60.373 48 62.2694 46.0441 62.2694 43.6375V12.3733L48.1172 23.2794" fill="#34A853"/>
<path d="M48.1172 4.37483V23.2788L62.2694 12.3727V6.55605C62.2694 1.16115 56.2759 -1.91437 52.0798 1.32111" fill="#FBBC04"/>
<path d="M14.1526 23.2804V4.37646L31.1352 17.4638L48.1179 4.37646V23.2804L31.1352 36.3678" fill="#EA4335"/>
<path d="M0 6.55605V12.3727L14.1522 23.2788V4.37483L10.1896 1.32111C5.98638 -1.91437 0 1.16115 0 6.55605Z" fill="#C5221F"/>
</svg>
