<svg width="80" height="80" viewBox="0 0 80 80" fill="none" xmlns="http://www.w3.org/2000/svg">
<path d="M40.7067 61.1268C29.3097 61.1268 20.0707 51.9202 20.0707 40.5634C20.0707 29.2065 29.3097 20 40.7067 20C52.1037 20 61.3428 29.2065 61.3428 40.5634L61.3274 41.0369C61.1812 45.5543 64.8035 49.2958 69.3232 49.2958H72C76.4183 49.2958 80 45.7141 80 41.2958V37.6794C80 33.7438 76.9694 30.4719 73.0452 30.1711L70.4842 29.9748C69.5429 29.9027 68.7019 29.3597 68.2486 28.5317V28.5317C67.67 27.4747 67.8349 26.1657 68.6576 25.2852L70.5823 23.2253C73.0099 20.627 72.9807 16.5837 70.5159 14.0208L67.1854 10.5578C64.2705 7.52681 59.4507 7.43172 56.4185 10.3453L54.9755 11.732C54.3496 12.3333 53.4994 12.6433 52.6333 12.5857V12.5857C51.0124 12.4781 49.7527 11.1319 49.7527 9.50733V6.4028C49.7527 2.86663 46.886 0 43.3498 0H37.894C33.827 0 30.53 3.29697 30.53 7.36399V10.4349C30.53 11.4564 29.9322 12.3834 29.0017 12.8049V12.8049C28.0443 13.2386 26.9201 13.0536 26.152 12.3361L23.6759 10.0229C20.7004 7.24322 16.0727 7.2686 13.1279 10.0808L10.0611 13.0094C7.16664 15.7735 7.08242 20.3678 9.87365 23.2361L12.3357 25.7662C13.2238 26.6788 13.3671 28.0826 12.6817 29.1558V29.1558C12.1778 29.9449 11.3061 30.4225 10.3698 30.4225H7.67023C3.43408 30.4225 0 33.8566 0 38.0928V43.4203C0 47.0793 3.05813 49.9957 6.71301 49.8223L9.3951 49.695C10.8413 49.6264 12.1398 50.575 12.514 51.9736V51.9736C12.8142 53.0954 12.4574 54.2907 11.5914 55.0644L9.87484 56.598C7.07262 59.1015 6.82379 63.4001 9.31843 66.2102L12.6626 69.9773C15.4687 73.1382 20.3433 73.3238 23.3815 70.3853L25.8381 68.0093C26.7742 67.104 28.1978 66.9307 29.3238 67.5852V67.5852C30.242 68.119 30.7966 69.1106 30.7706 70.1724L30.7092 72.6787C30.611 76.6928 33.8382 80 37.8536 80H49.6029C49.6856 80 49.7527 79.9329 49.7527 79.8502V70.1727C49.7527 65.1768 45.7026 61.1268 40.7067 61.1268V61.1268Z" fill="url(#paint0_radial_590:499)"/>
<path d="M45.2297 40C45.2297 42.8003 42.9516 45.0704 40.1413 45.0704C37.3311 45.0704 35.053 42.8003 35.053 40C35.053 37.1997 37.3311 34.9296 40.1413 34.9296C42.9516 34.9296 45.2297 37.1997 45.2297 40Z" fill="url(#paint1_radial_590:499)"/>
<path fill-rule="evenodd" clip-rule="evenodd" d="M45.2297 40C45.2297 42.8003 42.9516 45.0704 40.1413 45.0704C37.3311 45.0704 35.053 42.8003 35.053 40C35.053 37.1997 37.3311 34.9296 40.1413 34.9296C42.9516 34.9296 45.2297 37.1997 45.2297 40Z" fill="url(#paint2_radial_590:499)"/>
<path fill-rule="evenodd" clip-rule="evenodd" d="M45.2297 40C45.2297 42.8003 42.9516 45.0704 40.1413 45.0704C37.3311 45.0704 35.053 42.8003 35.053 40C35.053 37.1997 37.3311 34.9296 40.1413 34.9296C42.9516 34.9296 45.2297 37.1997 45.2297 40Z" fill="url(#paint3_radial_590:499)"/>
<path d="M46.9258 39.7183C46.9258 43.6076 43.7617 46.7606 39.8587 46.7606C36.8867 46.7606 34.3432 44.9325 33.2988 42.3432C32.7352 40.946 31.61 39.6594 30.1053 39.5845V39.5845C28.4909 39.504 27.1069 40.8101 27.4907 42.3803C28.6928 47.2975 32.8383 51.0661 37.962 51.7276C39.0208 51.8643 40.083 52.042 41.0578 52.4772C42.2059 52.9898 43.7905 53.7242 44.947 54.3662C52.2292 58.4088 56.1645 61.6917 60.4921 68.5588C61.2526 69.7655 61.5328 71.2039 61.9403 72.5709C63.0213 76.1976 66.7327 78.8732 70.6714 78.8732C75.3551 78.8732 79.1519 75.0897 79.1519 70.4225C79.1519 66.4297 76.3753 62.8774 72.6402 61.9343C71.3761 61.6151 70.0648 61.3829 68.9382 60.7267C61.2149 56.2274 56.1778 50.2632 52.5046 40.7502C52.1709 39.8861 52.0396 38.9594 51.9359 38.0389C51.3492 32.8299 47.5226 28.5975 42.5111 27.3894C40.9448 27.0118 39.6437 28.3912 39.7244 30.0003V30.0003C39.7996 31.4993 41.0804 32.6202 42.4752 33.1745C45.083 34.2108 46.9258 36.7501 46.9258 39.7183Z" fill="url(#paint4_radial_590:499)"/>
<defs>
<radialGradient id="paint0_radial_590:499" cx="0" cy="0" r="1" gradientUnits="userSpaceOnUse" gradientTransform="translate(40.1413 -2.53522) rotate(90.0981) scale(82.5353)">
<stop stop-color="#1ED24A" stop-opacity="0.56"/>
<stop offset="1" stop-color="#1ED24A"/>
</radialGradient>
<radialGradient id="paint1_radial_590:499" cx="0" cy="0" r="1" gradientUnits="userSpaceOnUse" gradientTransform="translate(40.1413 -2.53522) rotate(90.0981) scale(82.5353)">
<stop stop-color="#1ED24A" stop-opacity="0.56"/>
<stop offset="1" stop-color="#1ED24A"/>
</radialGradient>
<radialGradient id="paint2_radial_590:499" cx="0" cy="0" r="1" gradientUnits="userSpaceOnUse" gradientTransform="translate(40.1413 -2.53522) rotate(90.0981) scale(82.5353)">
<stop stop-color="#1ED24A" stop-opacity="0.56"/>
<stop offset="1" stop-color="#1ED24A"/>
</radialGradient>
<radialGradient id="paint3_radial_590:499" cx="0" cy="0" r="1" gradientUnits="userSpaceOnUse" gradientTransform="translate(40.1413 -2.53522) rotate(90.0981) scale(82.5353)">
<stop stop-color="#1ED24A" stop-opacity="0.56"/>
<stop offset="1" stop-color="#1ED24A"/>
</radialGradient>
<radialGradient id="paint4_radial_590:499" cx="0" cy="0" r="1" gradientUnits="userSpaceOnUse" gradientTransform="translate(40.1413 -2.53522) rotate(90.0981) scale(82.5353)">
<stop stop-color="#1ED24A" stop-opacity="0.56"/>
<stop offset="1" stop-color="#1ED24A"/>
</radialGradient>
</defs>
</svg>
