<svg width="550" height="500" viewBox="0 0 550 500" fill="none" xmlns="http://www.w3.org/2000/svg">
<rect width="550" height="500" rx="64" fill="url(#paint0_linear_590:446)"/>
<path d="M86.6455 168.398V97.3012C86.6455 91.2082 91.5849 86.2689 97.6778 86.2689C103.771 86.2689 108.71 91.2082 108.71 97.3012V168.398C108.71 174.491 103.771 179.431 97.6778 179.431C91.5849 179.431 86.6455 174.491 86.6455 168.398Z" fill="#DB212E"/>
<path d="M38.4302 130.806C39.0044 115.169 39.532 108.655 37.2043 93.6234L63.7637 129.581C54.1172 140.929 53.5485 141.43 53.5485 150.419L38.4302 130.806Z" fill="#A22028"/>
<path d="M72.4979 152.881C68.8311 157.747 61.9135 158.719 57.0475 155.053C52.1814 151.386 51.2095 144.468 54.8763 139.602L86.6455 97.4429L86.6455 134.106L72.4979 152.881Z" fill="#E94B4C"/>
<path d="M18 168.398V97.3012C18 91.2082 22.9393 86.2688 29.0323 86.2688C35.1253 86.2688 40.0647 91.2082 40.0647 97.3012V168.398C40.0647 174.491 35.1253 179.431 29.0323 179.431C22.9393 179.431 18 174.491 18 168.398Z" fill="#DB212E"/>
<path d="M120.189 159.697L157.297 95.4249C160.477 89.9168 167.332 87.9213 172.609 90.9678C177.886 94.0143 179.585 100.949 176.405 106.457L139.298 170.729C136.117 176.238 129.262 178.233 123.985 175.187C118.708 172.14 117.009 165.205 120.189 159.697Z" fill="#FBB613"/>
<path d="M194.888 170.729L157.78 106.457C154.6 100.949 156.3 94.0143 161.576 90.9678C166.853 87.9213 173.709 89.9168 176.889 95.4249L213.996 159.697C217.177 165.205 215.477 172.14 210.2 175.187C204.924 178.233 198.068 176.238 194.888 170.729Z" fill="#F99D20"/>
<path d="M136.99 139.387H198.109C203.346 139.387 207.593 144.327 207.593 150.42C207.593 156.513 203.346 161.452 198.109 161.452H136.99C131.752 161.452 127.506 156.513 127.506 150.42C127.506 144.327 131.752 139.387 136.99 139.387Z" fill="#F6BA1B"/>
<path d="M229.137 168.398V97.3012C229.137 91.2082 234.077 86.2688 240.17 86.2688C246.263 86.2688 251.202 91.2082 251.202 97.3012V168.398C251.202 174.491 246.263 179.431 240.17 179.431C234.077 179.431 229.137 174.491 229.137 168.398Z" fill="#92C546"/>
<path d="M294.917 177.457L259.197 141.737C256.135 138.675 257.146 132.701 261.455 128.393C265.763 124.084 271.738 123.073 274.799 126.134L310.519 161.855C313.58 164.916 312.569 170.89 308.261 175.199C303.953 179.507 297.978 180.518 294.917 177.457Z" fill="#92C546"/>
<path d="M233.989 145.659L288.231 91.4169C292.879 86.7684 300.14 86.4926 304.448 90.801C308.757 95.1094 308.481 102.37 303.833 107.019L249.591 161.261C244.942 165.91 237.681 166.186 233.372 161.877C229.064 157.569 229.34 150.307 233.989 145.659Z" fill="#31953F"/>
<path d="M523.885 157.323C528.004 161.442 527.851 168.275 523.543 172.583C519.234 176.891 512.402 177.044 508.283 172.925L471.143 135.785L502.347 135.785L523.885 157.323Z" fill="#512F8C"/>
<path d="M498.186 149.194C515.562 149.194 529.648 135.108 529.648 117.731C529.648 100.355 515.562 86.2688 498.186 86.2688L454.315 86.2689C448.489 86.2689 443.766 91.2083 443.766 97.3013C443.766 103.394 448.489 107.516 454.315 107.516H497.294C503.387 107.516 508.326 112.456 508.326 118.549C508.326 124.642 503.387 129.581 497.294 129.581C497.189 129.581 497.085 129.58 496.981 129.577L467.874 129.172H454.315C448.489 129.172 443.766 132.069 443.766 138.162C443.766 144.255 448.489 149.194 454.315 149.194H498.186Z" fill="#7159A3"/>
<path d="M443.766 165.613V97.6346C443.766 91.8088 448.706 87.0861 454.799 87.0861C460.892 87.0861 465.831 91.8088 465.831 97.6346V165.613C465.831 171.439 460.892 176.162 454.799 176.162C448.706 176.162 443.766 171.439 443.766 165.613Z" fill="#8B77BC"/>
<path d="M412.024 110.785L349.658 110.785C344.313 110.785 339.981 105.846 339.981 99.7528C339.981 93.6598 344.313 88.7205 349.658 88.7205H412.024C417.369 88.7205 421.702 93.6598 421.702 99.7528C421.702 105.846 417.369 110.785 412.024 110.785Z" fill="#22BFD6"/>
<path d="M412.841 177.796H350.475C345.131 177.796 340.798 172.857 340.798 166.764C340.798 160.671 345.131 155.732 350.475 155.732H412.841C418.186 155.732 422.519 160.671 422.519 166.764C422.519 172.857 418.186 177.796 412.841 177.796Z" fill="#22BFD6"/>
<path d="M339.981 167.248V99.2689C339.981 93.4432 344.92 88.7205 351.013 88.7205C357.106 88.7205 362.045 93.4432 362.045 99.2689V167.248C362.045 173.073 357.106 177.796 351.013 177.796C344.92 177.796 339.981 173.073 339.981 167.248Z" fill="#7CD2E3"/>
<path d="M391.131 144.291H346.852C343.057 144.291 339.981 139.351 339.981 133.258C339.981 127.165 343.057 122.226 346.852 122.226H391.131C394.926 122.226 398.003 127.165 398.003 133.258C398.003 139.351 394.926 144.291 391.131 144.291Z" fill="#7CD2E3"/>
<path d="M230.791 353.72C209.55 353.72 192.269 336.436 192.269 315.195V311.993C192.269 290.751 209.55 273.47 230.791 273.47H239.446V269.203H230.791C207.197 269.203 188 288.399 188 311.995V315.197C188 338.791 207.195 357.988 230.791 357.988H243.762L248.049 353.722H230.791V353.72Z" fill="#1E4E55"/>
<path d="M235.005 438.232H230.791C209.55 438.232 192.269 420.952 192.269 399.709C192.269 398.531 191.314 397.576 190.133 397.576C188.955 397.576 188 398.531 188 399.709C188 423.303 207.195 442.5 230.791 442.5H235.005C234.887 441.806 234.814 441.096 234.814 440.367C234.814 439.638 234.887 438.929 235.005 438.232Z" fill="#1E4E55"/>
<path d="M318.509 353.732H303.874L299.655 358.001H318.509C339.752 358.001 357.034 375.282 357.034 396.526V399.711C357.034 420.955 339.752 438.234 318.509 438.234H313.228C313.344 438.931 313.419 439.638 313.419 440.369C313.419 441.097 313.344 441.808 313.228 442.503H318.509C342.103 442.503 361.3 423.307 361.3 399.711V396.526C361.298 372.93 342.103 353.732 318.509 353.732Z" fill="#1E4E55"/>
<path d="M292.957 383.019C292.957 383.019 288.359 387.586 286.567 389.37C284.778 391.141 286.299 392.683 286.299 392.683C286.299 392.683 287.317 393.695 288.839 395.235C290.369 396.775 296.994 395.266 296.994 395.266L301.066 399.357C301.066 399.357 320.204 418.622 321.852 420.272C323.518 421.942 328.481 421.826 330.013 420.302C331.553 418.782 334.115 416.235 334.115 416.235C334.115 416.235 336.675 413.703 338.205 412.171C339.731 410.643 339.881 405.676 338.229 404.014C336.577 402.346 317.431 383.094 317.431 383.094L313.372 379.002C313.372 379.002 314.922 372.379 313.398 370.849C311.876 369.303 310.85 368.285 310.85 368.285C310.85 368.285 309.333 366.751 307.537 368.521C305.751 370.306 301.147 374.888 301.147 374.888L292.031 365.711L283.914 373.915L292.957 383.019Z" fill="#22BFD6"/>
<path d="M243.941 317.32L237.86 307.114L229.713 298.929L213.943 290.221L211.381 292.75L208.822 295.3L217.442 311.131L225.579 319.317L235.756 325.457L255.983 345.814L264.163 337.671L243.941 317.32Z" fill="#22BFD6"/>
<path d="M319.557 337.866C319.833 337.59 320.055 337.263 320.219 336.905L339.223 295.016C339.796 293.754 339.526 292.287 338.557 291.306C338.553 291.302 338.553 291.302 338.553 291.302C337.58 290.331 336.109 290.056 334.853 290.617C334.853 290.617 291.42 310.469 291.221 310.735L264.161 337.671L255.981 345.814L248.041 353.719L243.755 357.986L209.671 391.913C208.377 393.197 208.371 395.298 209.657 396.592L217.822 404.806C217.832 404.814 217.834 404.829 217.847 404.839C217.855 404.849 217.865 404.849 217.879 404.865L225.282 412.303C225.291 412.313 225.297 412.327 225.307 412.338L225.311 412.344C225.321 412.354 225.335 412.358 225.341 412.362L233.289 420.349C233.289 420.349 233.289 420.349 233.293 420.355C233.308 420.369 233.326 420.387 233.342 420.401C234.636 421.696 236.731 421.706 238.029 420.405C238.194 420.243 238.328 420.068 238.454 419.875L283.907 373.918L292.023 365.714L299.65 358.002L303.87 353.734L319.557 337.866ZM312.895 307.71C313.269 310.081 314.209 312.153 315.875 313.817C317.696 315.637 319.955 316.651 321.867 317.23L314.788 332.836L297.166 314.75L312.895 307.71ZM216.682 394.268L250.937 360.178L277.353 333.89L290.786 320.52C291.129 321.036 291.526 321.548 292.021 322.045C292.698 322.72 293.409 323.22 294.118 323.618L280.619 337.159L254.309 363.557L220.191 397.787L216.682 394.268ZM224.86 402.486L258.994 368.24L285.305 341.842L298.685 328.417C299.025 328.939 299.419 329.451 299.916 329.947C299.927 329.957 299.937 329.967 299.941 329.971C300.453 330.481 300.973 330.877 301.501 331.231L288.118 344.654L261.804 371.048L227.655 405.3L224.86 402.486ZM235.626 413.311L232.328 409.993L266.487 375.731L292.799 349.339L306.168 335.93C306.521 336.456 306.907 336.988 307.413 337.494C307.417 337.498 307.43 337.509 307.438 337.519C308.011 338.094 308.606 338.541 309.205 338.919L295.867 352.405L269.659 378.902L235.626 413.311Z" fill="#DB212E"/>
<path d="M313.235 438.232C312.215 432.179 306.965 427.563 300.624 427.563H293.682V453.169H300.624C306.965 453.169 312.215 448.555 313.235 442.5C313.35 441.805 313.426 441.096 313.426 440.367C313.426 439.638 313.35 438.928 313.235 438.232Z" fill="#DB212E"/>
<path d="M287.27 427.563H278.755V453.169H287.27V427.563Z" fill="#DB212E"/>
<path d="M267.953 427.563H265.681V453.169H267.953V427.563Z" fill="#DB212E"/>
<path d="M261.405 427.563H247.606C241.265 427.563 236.013 432.179 234.995 438.232C234.878 438.928 234.804 439.636 234.804 440.367C234.804 441.094 234.88 441.805 234.995 442.5C236.013 448.553 241.263 453.169 247.606 453.169H261.405V427.563Z" fill="#DB212E"/>
<path d="M274.5 427.563H272.229V453.169H274.5V427.563Z" fill="#DB212E"/>
<path d="M258.71 250.106C248.631 251.107 240.614 259.122 239.615 269.202H258.71V250.106Z" fill="#F6BA1B"/>
<path d="M239.614 273.471C240.615 283.55 248.63 291.567 258.709 292.567V273.471H239.614Z" fill="#F6BA1B"/>
<path d="M262.973 292.671H287.392C299.174 292.671 308.727 283.118 308.727 271.335C308.727 259.553 299.174 250 287.392 250H262.973V292.671Z" fill="#F6BA1B"/>
<defs>
<linearGradient id="paint0_linear_590:446" x1="275" y1="0" x2="275" y2="500" gradientUnits="userSpaceOnUse">
<stop stop-color="#61D791"/>
<stop offset="1" stop-color="#20934F"/>
</linearGradient>
</defs>
</svg>
